<svg xmlns="http://www.w3.org/2000/svg" xmlns:xlink="http://www.w3.org/1999/xlink" xmlns:lucid="lucid" width="1922.5" height="1244"><g transform="translate(2380.5 482)" lucid:page-tab-id="0_0"><path d="M-2500-500H0v1500h-2500z" fill="#fff"/><path d="M-800 40c22.1 0 40 17.9 40 40s-17.9 40-40 40h-80c-22.1 0-40-17.9-40-40s17.9-40 40-40z" stroke="#000" stroke-width="4" fill="#fff"/><use xlink:href="#a" transform="matrix(1,0,0,1,-915,45) translate(18.397352430555564 43.40277777777778)"/><path d="M-800 320c22.1 0 40 17.9 40 40s-17.9 40-40 40h-80c-22.1 0-40-17.9-40-40s17.9-40 40-40z" stroke="#000" stroke-width="4" fill="#fff"/><use xlink:href="#b" transform="matrix(1,0,0,1,-915,325) translate(10.324435763888886 43.40277777777778)"/><path d="M-800 180c22.1 0 40 17.9 40 40s-17.9 40-40 40h-80c-22.1 0-40-17.9-40-40s17.9-40 40-40z" stroke="#000" stroke-width="4" fill="#fff"/><use xlink:href="#c" transform="matrix(1,0,0,1,-915,185.00000000000003) translate(32.373046875 43.40277777777778)"/><path d="M-500 680c22.1 0 40 17.9 40 40s-17.9 40-40 40h-80c-22.1 0-40-17.9-40-40s17.9-40 40-40z" stroke="#000" stroke-width="4" fill="#fff"/><use xlink:href="#d" transform="matrix(1,0,0,1,-615,685) translate(20.60004340277778 43.40277777777778)"/><path d="M-1080 570c22.1 0 40 17.9 40 40s-17.9 40-40 40h-80c-22.1 0-40-17.9-40-40s17.9-40 40-40z" stroke="#000" stroke-width="2" fill="#fff"/><use xlink:href="#e" transform="matrix(1,0,0,1,-1195,575) translate(16.010199652777786 43.40277777777778)"/><path d="M-1201.5 610h-43.43a6 6 0 0 1-6-6V278.43" stroke="#3a414a" fill="none"/><path d="M-1201 610l.02.48h-.53v-.96h.53z" stroke="#3a414a" stroke-width=".05" fill="#3a414a"/><path d="M-1250.93 263.67l4.63 14.26h-9.27z" stroke="#3a414a" fill="#3a414a"/><path d="M-1400 556a6 6 0 0 1 6-6h148a6 6 0 0 1 6 6v18a6 6 0 0 1-6 6h-148a6 6 0 0 1-6-6z" fill="none"/><use xlink:href="#f" transform="matrix(1,0,0,1,-1400,550) translate(36.30316840277778 20.65863715277778)"/><path d="M-500 460c22.1 0 40 17.9 40 40s-17.9 40-40 40h-80c-22.1 0-40-17.9-40-40s17.9-40 40-40z" stroke="#000" stroke-width="4" fill="#fff"/><use xlink:href="#g" transform="matrix(1,0,0,1,-615,465) translate(11.865234375 43.40277777777778)"/><path d="M-1060 576a6 6 0 0 1 6-6h148a6 6 0 0 1 6 6v18a6 6 0 0 1-6 6h-148a6 6 0 0 1-6-6z" fill="none"/><use xlink:href="#h" transform="matrix(1,0,0,1,-1060,570) translate(42.193467881944436 20.65863715277778)"/><path d="M-720 570c22.1 0 40 17.9 40 40s-17.9 40-40 40h-120c-22.1 0-40-17.9-40-40s17.9-40 40-40z" stroke="#000" stroke-width="2" fill="#fff"/><use xlink:href="#i" transform="matrix(1,0,0,1,-875,575) translate(11.349826388888886 41.28472222222222)"/><path d="M-1038.5 610h141.12" stroke="#3a414a" fill="none"/><path d="M-1038.5 610.48h-.53l.03-.47-.02-.48h.53z" stroke="#3a414a" stroke-width=".05" fill="#3a414a"/><path d="M-882.62 610l-14.26 4.63v-9.26z" stroke="#3a414a" fill="#3a414a"/><path d="M-622.5 720H-774a6 6 0 0 1-6-6v-46.62" stroke="#3a414a" fill="none"/><path d="M-622 719.97l.02.5h-.53v-.95h.53z" stroke="#3a414a" stroke-width=".05" fill="#3a414a"/><path d="M-780 652.62l4.63 14.26h-9.26z" stroke="#3a414a" fill="#3a414a"/><path d="M-622.5 500H-774a6 6 0 0 0-6 6v46.62" stroke="#3a414a" fill="none"/><path d="M-622 499.97l.02.5h-.53v-.95h.53z" stroke="#3a414a" stroke-width=".05" fill="#3a414a"/><path d="M-780 567.38l-4.63-14.26h9.26z" stroke="#3a414a" fill="#3a414a"/><path d="M-780 477.86a6 6 0 0 1 6-6h148a6 6 0 0 1 6 6v18a6 6 0 0 1-6 6h-148a6 6 0 0 1-6-6z" fill="none"/><use xlink:href="#j" transform="matrix(1,0,0,1,-780,471.86019586641555) translate(20.9526909722222 20.65863715277778)"/><path d="M-800 726.24a6 6 0 0 1 6-6h148a6 6 0 0 1 6 6v18a6 6 0 0 1-6 6h-148a6 6 0 0 1-6-6z" fill="none"/><use xlink:href="#j" transform="matrix(1,0,0,1,-800,720.2373542111043) translate(20.9526909722222 20.65863715277778)"/><path d="M-1140 181.05c22.1 0 40 17.9 40 40s-17.9 40-40 40h-120c-22.1 0-40-17.9-40-40s17.9-40 40-40z" stroke="#000" stroke-width="2" fill="#fff"/><use xlink:href="#k" transform="matrix(1,0,0,1,-1295,186.04877503875994) translate(8.460286458333343 43.40277777777778)"/><path d="M-1840 181.05c22.1 0 40 17.9 40 40s-17.9 40-40 40h-80c-22.1 0-40-17.9-40-40s17.9-40 40-40z" stroke="#000" stroke-width="4" fill="#fff"/><use xlink:href="#l" transform="matrix(1,0,0,1,-1955,186.04877503875994) translate(40.999348958333336 43.40277777777778)"/><path d="M-922.5 80H-1194a6 6 0 0 0-6 6v77.66" stroke="#3a414a" fill="none"/><path d="M-922 79.97l.02.5h-.53v-.94h.53z" stroke="#3a414a" stroke-width=".05" fill="#3a414a"/><path d="M-1200 178.43l-4.63-14.27h9.27z" stroke="#3a414a" fill="#3a414a"/><path d="M-922.5 360H-1194a6 6 0 0 1-6-6v-75.57" stroke="#3a414a" fill="none"/><path d="M-922 359.97l.02.5h-.53v-.95h.53z" stroke="#3a414a" stroke-width=".05" fill="#3a414a"/><path d="M-1200 263.67l4.63 14.26h-9.27z" stroke="#3a414a" fill="#3a414a"/><path d="M-922.5 220h-160.15" stroke="#3a414a" fill="none"/><path d="M-922 219.97l.02.5h-.53v-.94h.53z" stroke="#3a414a" stroke-width=".05" fill="#3a414a"/><path d="M-1097.42 220l14.27-4.63v9.26z" stroke="#3a414a" fill="#3a414a"/><path d="M-1100 46a6 6 0 0 1 6-6h148a6 6 0 0 1 6 6v18a6 6 0 0 1-6 6h-148a6 6 0 0 1-6-6z" fill="none"/><use xlink:href="#j" transform="matrix(1,0,0,1,-1100,40.00000000000003) translate(20.9526909722222 20.65863715277778)"/><path d="M-1100 367.86a6 6 0 0 1 6-6h148a6 6 0 0 1 6 6v18a6 6 0 0 1-6 6h-148a6 6 0 0 1-6-6z" fill="none"/><use xlink:href="#j" transform="matrix(1,0,0,1,-1100,361.86019586641555) translate(20.9526909722222 20.65863715277778)"/><path d="M-1080 187.05a6 6 0 0 1 6-6h148a6 6 0 0 1 6 6v18a6 6 0 0 1-6 6h-148a6 6 0 0 1-6-6z" fill="none"/><use xlink:href="#j" transform="matrix(1,0,0,1,-1080,181.04877503875994) translate(20.9526909722222 20.65863715277778)"/><path d="M-1500 181.05c22.1 0 40 17.9 40 40s-17.9 40-40 40h-80c-22.1 0-40-17.9-40-40s17.9-40 40-40z" stroke="#000" stroke-width="2" fill="#fff"/><use xlink:href="#m" transform="matrix(1,0,0,1,-1615,186.04877503875997) translate(27.78862847222222 43.40277777777778)"/><path d="M-1458.5 221.05h141.1" stroke="#3a414a" fill="none"/><path d="M-1458.5 221.52h-.53l.03-.46-.02-.5h.53z" stroke="#3a414a" stroke-width=".05" fill="#3a414a"/><path d="M-1302.62 221.05l-14.27 4.63v-9.27z" stroke="#3a414a" fill="#3a414a"/><path d="M-1621.5 221.05h-160.12" stroke="#3a414a" fill="none"/><path d="M-1621 221.03l.02.5h-.53v-.96h.53z" stroke="#3a414a" stroke-width=".05" fill="#3a414a"/><path d="M-1796.38 221.05l14.27-4.64-.02 9.28z" stroke="#3a414a" fill="#3a414a"/><path d="M-780-120c22.1 0 40 17.9 40 40s-17.9 40-40 40h-120c-22.1 0-40-17.9-40-40s17.9-40 40-40z" stroke="#000" stroke-width="4" fill="#fff"/><use xlink:href="#n" transform="matrix(1,0,0,1,-935,-115) translate(62.415364583333336 43.40277777777778)"/><path d="M-1780 187.05a6 6 0 0 1 6-6h148a6 6 0 0 1 6 6v18a6 6 0 0 1-6 6h-148a6 6 0 0 1-6-6z" fill="none"/><use xlink:href="#h" transform="matrix(1,0,0,1,-1780,181.04877503875997) translate(42.193467881944436 20.65863715277778)"/><path d="M-1840 337.5c22.1 0 40 17.9 40 40s-17.9 40-40 40h-80c-22.1 0-40-17.9-40-40s17.9-40 40-40z" stroke="#000" stroke-width="2" fill="#fff"/><use xlink:href="#o" transform="matrix(1,0,0,1,-1955,342.5046847894017) translate(39.78949652777778 43.40277777777778)"/><path d="M-1880 336v-56.57" stroke="#3a414a" fill="none"/><path d="M-1879.53 336.5h-.94v-.5h.94z" stroke="#3a414a" stroke-width=".05" fill="#3a414a"/><path d="M-1880 264.67l4.63 14.26h-9.27z" stroke="#3a414a" fill="#3a414a"/><path d="M-1840 500c22.1 0 40 17.9 40 40s-17.9 40-40 40h-80c-22.1 0-40-17.9-40-40s17.9-40 40-40z" stroke="#000" stroke-width="4" fill="#fff"/><use xlink:href="#p" transform="matrix(1,0,0,1,-1955,505) translate(36.51258680555556 43.40277777777778)"/><path d="M-1880 419v62.62" stroke="#3a414a" fill="none"/><path d="M-1879.53 419.02h-.94v-.5h.94z" stroke="#3a414a" stroke-width=".05" fill="#3a414a"/><path d="M-1880 496.38l-4.63-14.26h9.27z" stroke="#3a414a" fill="#3a414a"/><path d="M-2020 298.1a6 6 0 0 1 6-6h148a6 6 0 0 1 6 6v18a6 6 0 0 1-6 6h-148a6 6 0 0 1-6-6z" fill="none"/><use xlink:href="#h" transform="matrix(1,0,0,1,-2020,292.0975500775198) translate(42.193467881944436 20.65863715277778)"/><path d="M-2020 449.75a6 6 0 0 1 6-6h148a6 6 0 0 1 6 6v18a6 6 0 0 1-6 6h-148a6 6 0 0 1-6-6z" fill="none"/><use xlink:href="#f" transform="matrix(1,0,0,1,-2020,443.75234239470086) translate(36.30316840277778 20.65863715277778)"/><path d="M-1837.73-24.67c22.1 0 40 17.9 40 40s-17.9 40-40 40h-80c-22.1 0-40-17.9-40-40s17.9-40 40-40z" stroke="#000" stroke-width="2" fill="#fff"/><use xlink:href="#q" transform="matrix(1,0,0,1,-1952.7274597054393,-19.672372124962635) translate(31.369357638888893 43.40277777777778)"/><path d="M-1837.73-180c22.1 0 40 17.9 40 40s-17.9 40-40 40h-80c-22.1 0-40-17.9-40-40s17.9-40 40-40z" stroke="#000" stroke-width="4" fill="#fff"/><use xlink:href="#r" transform="matrix(1,0,0,1,-1952.7274597054393,-175) translate(23.78472222222222 43.40277777777778)"/><path d="M-2016.86-74a6 6 0 0 1 6-6h148a6 6 0 0 1 6 6v18a6 6 0 0 1-6 6h-148a6 6 0 0 1-6-6z" fill="none"/><use xlink:href="#f" transform="matrix(1,0,0,1,-2016.8635706022274,-80) translate(36.30316840277778 20.65863715277778)"/><path d="M-1877.73-26.17v-55.45" stroke="#3a414a" fill="none"/><path d="M-1877.25-25.67h-.95v-.5h.95z" stroke="#3a414a" stroke-width=".05" fill="#3a414a"/><path d="M-1877.73-96.38l4.64 14.26h-9.26z" stroke="#3a414a" fill="#3a414a"/><path d="M-780-480c22.1 0 40 17.9 40 40s-17.9 40-40 40h-120c-22.1 0-40-17.9-40-40s17.9-40 40-40z" stroke="#000" stroke-width="4" fill="#fff"/><use xlink:href="#s" transform="matrix(1,0,0,1,-935,-475) translate(59.680989583333336 43.40277777777778)"/><path d="M-1181.33-240c22.1 0 40 17.9 40 40s-17.9 40-40 40h-120c-22.1 0-40-17.9-40-40s17.9-40 40-40z" stroke="#000" stroke-width="4" fill="#fff"/><use xlink:href="#t" transform="matrix(1,0,0,1,-1336.3278090674064,-235) translate(68.76302083333333 43.40277777777778)"/><path d="M-1460 187.05a6 6 0 0 1 6-6h148a6 6 0 0 1 6 6v18a6 6 0 0 1-6 6h-148a6 6 0 0 1-6-6z" fill="none"/><use xlink:href="#f" transform="matrix(1,0,0,1,-1460,181.04877503875994) translate(36.30316840277778 20.65863715277778)"/><path d="M-840-14a6 6 0 0 1 6-6h148a6 6 0 0 1 6 6V4a6 6 0 0 1-6 6h-148a6 6 0 0 1-6-6z" fill="none"/><use xlink:href="#j" transform="matrix(1,0,0,1,-840,-20.00000000000003) translate(20.9526909722222 20.65863715277778)"/><path d="M-840 402.5V436a6 6 0 0 0 6 6h318a6 6 0 0 0 6-6V-74a6 6 0 0 0-6-6h-205.62" stroke="#3a414a" fill="none"/><path d="M-839.52 402.5h-.96v-.5h.96z" stroke="#3a414a" stroke-width=".05" fill="#3a414a"/><path d="M-736.38-80l14.26-4.64v9.28z" stroke="#3a414a" fill="#3a414a"/><path d="M-1380-104a6 6 0 0 1 6-6h148a6 6 0 0 1 6 6v18a6 6 0 0 1-6 6h-148a6 6 0 0 1-6-6z" fill="none"/><use xlink:href="#f" transform="matrix(1,0,0,1,-1380,-110) translate(36.30316840277778 20.65863715277778)"/><path d="M-2220 418.95V534a6 6 0 0 0 6 6h235.62" stroke="#3a414a" fill="none"/><path d="M-2219.53 418.97h-.94v-.52h.94z" stroke="#3a414a" stroke-width=".05" fill="#3a414a"/><path d="M-1963.62 540l-14.27 4.63.02-9.26z" stroke="#3a414a" fill="#3a414a"/><path d="M-2220 336.95V201.5a6 6 0 0 1 6-6h244.34" stroke="#3a414a" fill="none"/><path d="M-2219.53 337.45h-.94v-.5h.94z" stroke="#3a414a" stroke-width=".05" fill="#3a414a"/><path d="M-1954.9 195.5l-14.26 4.64v-9.27z" stroke="#3a414a" fill="#3a414a"/><path d="M-2100 337.95c22.1 0 40 17.9 40 40s-17.9 40-40 40h-240c-22.1 0-40-17.9-40-40s17.9-40 40-40z" stroke="#000" fill="#fff"/><use xlink:href="#u" transform="matrix(1,0,0,1,-2375,342.95366035651693) translate(16.67534722222223 43.40277777777778)"/><path d="M-2218.8 556a6 6 0 0 1 6-6h148a6 6 0 0 1 6 6v18a6 6 0 0 1-6 6h-148a6 6 0 0 1-6-6z" fill="none"/><use xlink:href="#f" transform="matrix(1,0,0,1,-2218.8037597998655,550) translate(36.30316840277778 20.65863715277778)"/><path d="M-2218.8 170.56a6 6 0 0 1 6-6h148a6 6 0 0 1 6 6v18a6 6 0 0 1-6 6h-148a6 6 0 0 1-6-6z" fill="none"/><use xlink:href="#h" transform="matrix(1,0,0,1,-2218.8037597998655,164.56039401168823) translate(42.193467881944436 20.65863715277778)"/><path d="M-1607.48-40c22.1 0 40 17.9 40 40s-17.9 40-40 40h-97.5c-22.1 0-40-17.9-40-40s17.9-40 40-40z" stroke="#000" stroke-width="2" fill="#fff"/><use xlink:href="#v" transform="matrix(1,0,0,1,-1739.9734934837725,-35) translate(55.89127604166667 43.40277777777778)"/><path d="M-1697.68 41.5V114a6 6 0 0 1-6 6h-137.6a6 6 0 0 0-6 6v36.66" stroke="#3a414a" fill="none"/><path d="M-1697.2 41.5h-.95V41h.95z" stroke="#3a414a" stroke-width=".05" fill="#3a414a"/><path d="M-1847.27 177.43l-4.63-14.27h9.27z" stroke="#3a414a" fill="#3a414a"/><path d="M-1620.34 41.5v39.33a.17.17 0 0 0 .17.17.17.17 0 0 1 .17.17v58.18a6 6 0 0 1-6 6h-186a6 6 0 0 0-6 6v17.6" stroke="#3a414a" fill="none"/><path d="M-1619.86 41.5h-.95V41h.94z" stroke="#3a414a" stroke-width=".05" fill="#3a414a"/><path d="M-1818 183.73l-4.65-14.27h9.27z" stroke="#3a414a" fill="#3a414a"/><path d="M-1740 126a6 6 0 0 1 6-6h148a6 6 0 0 1 6 6v18a6 6 0 0 1-6 6h-148a6 6 0 0 1-6-6z" fill="none"/><use xlink:href="#h" transform="matrix(1,0,0,1,-1740,120) translate(42.193467881944436 20.65863715277778)"/><path d="M-1840 101a6 6 0 0 1 6-6h148a6 6 0 0 1 6 6v18a6 6 0 0 1-6 6h-148a6 6 0 0 1-6-6z" fill="none"/><use xlink:href="#f" transform="matrix(1,0,0,1,-1840,95.00000000000003) translate(36.30316840277778 20.65863715277778)"/><path d="M-680 419.75a6 6 0 0 1 6-6h148a6 6 0 0 1 6 6v18a6 6 0 0 1-6 6h-148a6 6 0 0 1-6-6z" fill="none"/><use xlink:href="#j" transform="matrix(1,0,0,1,-680,413.75234239470086) translate(20.9526909722222 20.65863715277778)"/><path d="M-1380 96a6 6 0 0 1 6-6h148a6 6 0 0 1 6 6v18a6 6 0 0 1-6 6h-148a6 6 0 0 1-6-6z" fill="none"/><use xlink:href="#h" transform="matrix(1,0,0,1,-1380,90) translate(42.193467881944436 20.65863715277778)"/><path d="M-1600 320c22.1 0 40 17.9 40 40s-17.9 40-40 40h-80c-22.1 0-40-17.9-40-40s17.9-40 40-40z" stroke="#000" stroke-width="2" fill="#fff"/><use xlink:href="#w" transform="matrix(1,0,0,1,-1715,325) translate(19.449869791666664 43.40277777777778)"/><path d="M-1640 318.5V292a6 6 0 0 0-6-6h-160.77a6 6 0 0 1-6-6v-10.62" stroke="#3a414a" fill="none"/><path d="M-1639.53 319h-.94v-.5h.94z" stroke="#3a414a" stroke-width=".05" fill="#3a414a"/><path d="M-1812.77 254.6l4.64 14.28h-9.27z" stroke="#3a414a" fill="#3a414a"/><path d="M-1640 401.5v53.87" stroke="#3a414a" fill="none"/><path d="M-1639.53 401.5h-.94v-.5h.94z" stroke="#3a414a" stroke-width=".05" fill="#3a414a"/><path d="M-1640 470.13l-4.63-14.26h9.27z" stroke="#3a414a" fill="#3a414a"/><path d="M-1770 415.9a6 6 0 0 1 6-6h148a6 6 0 0 1 6 6v18a6 6 0 0 1-6 6h-148a6 6 0 0 1-6-6z" fill="none"/><use xlink:href="#h" transform="matrix(1,0,0,1,-1770,409.89992178576495) translate(42.193467881944436 20.65863715277778)"/><path d="M-1820 290.28a6 6 0 0 1 6-6h148a6 6 0 0 1 6 6v18a6 6 0 0 1-6 6h-148a6 6 0 0 1-6-6z" fill="none"/><use xlink:href="#f" transform="matrix(1,0,0,1,-1820,284.2767299140809) translate(36.30316840277778 20.65863715277778)"/><path d="M-1600 473.75c22.1 0 40 17.9 40 40s-17.9 40-40 40h-80c-22.1 0-40-17.9-40-40s17.9-40 40-40z" stroke="#000" stroke-width="4" fill="#fff"/><use xlink:href="#x" transform="matrix(1,0,0,1,-1715,478.75234239470086) translate(25.911458333333336 43.40277777777778)"/><path d="M-2120 5.52c22.1 0 40 17.9 40 40s-17.9 40-40 40h-100c-22.1 0-40-17.9-40-40s17.9-40 40-40z" stroke="#000" stroke-width="2" fill="#fff"/><use xlink:href="#y" transform="matrix(1,0,0,1,-2255,10.524387519379957) translate(3.8422309027777715 43.40277777777778)"/><path d="M-2170 87.02V154a6 6 0 0 0 6 6h218.46a6 6 0 0 1 6 6v1.56" stroke="#3a414a" fill="none"/><path d="M-2169.53 87.04h-.94v-.52h.94z" stroke="#3a414a" stroke-width=".05" fill="#3a414a"/><path d="M-1939.54 182.32l-4.64-14.26h9.27z" stroke="#3a414a" fill="#3a414a"/><path d="M-2195.52 134.17a6 6 0 0 1 6-6h148a6 6 0 0 1 6 6v18a6 6 0 0 1-6 6h-148a6 6 0 0 1-6-6z" fill="none"/><use xlink:href="#f" transform="matrix(1,0,0,1,-2195.522062088944,128.17426098321334) translate(36.30316840277778 20.65863715277778)"/><path d="M-2120-155.52c22.1 0 40 17.9 40 40s-17.9 40-40 40h-100c-22.1 0-40-17.9-40-40s17.9-40 40-40z" stroke="#000" stroke-width="4" fill="#fff"/><use xlink:href="#z" transform="matrix(1,0,0,1,-2255,-150.52438751938) translate(37.425130208333336 43.40277777777778)"/><path d="M-2170 4.02v-61.16" stroke="#3a414a" fill="none"/><path d="M-2169.53 4.52h-.94v-.5h.94z" stroke="#3a414a" stroke-width=".05" fill="#3a414a"/><path d="M-2170-71.9l4.64 14.26h-9.28z" stroke="#3a414a" fill="#3a414a"/><path d="M-2200-44a6 6 0 0 1 6-6h148a6 6 0 0 1 6 6v18a6 6 0 0 1-6 6h-148a6 6 0 0 1-6-6z" fill="none"/><use xlink:href="#h" transform="matrix(1,0,0,1,-2200,-50.00000000000003) translate(42.193467881944436 20.65863715277778)"/><path d="M-1201.33-40c22.1 0 40 17.9 40 40s-17.9 40-40 40h-80c-22.1 0-40-17.9-40-40s17.9-40 40-40z" stroke="#000" stroke-width="2" fill="#fff"/><use xlink:href="#A" transform="matrix(1,0,0,1,-1316.3278090674064,-35) translate(30.246310763888886 43.40277777777778)"/><path d="M-840 37.5v-59.12" stroke="#3a414a" fill="none"/><path d="M-839.52 38h-.96v-.5h.96z" stroke="#3a414a" stroke-width=".05" fill="#3a414a"/><path d="M-840-36.38l4.63 14.26h-9.26z" stroke="#3a414a" fill="#3a414a"/><path d="M-1877.73 56.83v105.83" stroke="#3a414a" fill="none"/><path d="M-1877.25 56.84h-.95v-.5h.95z" stroke="#3a414a" stroke-width=".05" fill="#3a414a"/><path d="M-1877.73 177.43l-4.63-14.27h9.27z" stroke="#3a414a" fill="#3a414a"/><path d="M-1241.33 41.5v122.16" stroke="#3a414a" fill="none"/><path d="M-1240.85 41.5h-.95V41h.95z" stroke="#3a414a" stroke-width=".05" fill="#3a414a"/><path d="M-1241.33 178.43l-4.63-14.27h9.27z" stroke="#3a414a" fill="#3a414a"/><path d="M-1241.33-41.5v-100.12" stroke="#3a414a" fill="none"/><path d="M-1240.85-41h-.95v-.5h.95z" stroke="#3a414a" stroke-width=".05" fill="#3a414a"/><path d="M-1241.33-156.38l4.64 14.26h-9.26z" stroke="#3a414a" fill="#3a414a"/><path d="M-780-300c22.1 0 40 17.9 40 40s-17.9 40-40 40h-120c-22.1 0-40-17.9-40-40s17.9-40 40-40z" stroke="#000" stroke-width="2" fill="#fff"/><use xlink:href="#B" transform="matrix(1,0,0,1,-935,-295) translate(39.87304687499999 43.40277777777778)"/><path d="M-840-218.5v80.12" stroke="#3a414a" fill="none"/><path d="M-839.52-218.5h-.96v-.5h.96z" stroke="#3a414a" stroke-width=".05" fill="#3a414a"/><path d="M-840-123.62l-4.63-14.26h9.26z" stroke="#3a414a" fill="#3a414a"/><path d="M-840-301.5v-80.12" stroke="#3a414a" fill="none"/><path d="M-839.52-301h-.96v-.5h.96z" stroke="#3a414a" stroke-width=".05" fill="#3a414a"/><path d="M-840-396.38l4.63 14.26h-9.26z" stroke="#3a414a" fill="#3a414a"/><path d="M-980-184a6 6 0 0 1 6-6h148a6 6 0 0 1 6 6v18a6 6 0 0 1-6 6h-148a6 6 0 0 1-6-6z" fill="none"/><use xlink:href="#f" transform="matrix(1,0,0,1,-980,-190) translate(36.30316840277778 20.65863715277778)"/><path d="M-980-367.45a6 6 0 0 1 6-6h148a6 6 0 0 1 6 6v18a6 6 0 0 1-6 6h-148a6 6 0 0 1-6-6z" fill="none"/><use xlink:href="#h" transform="matrix(1,0,0,1,-980,-373.45536927590763) translate(42.193467881944436 20.65863715277778)"/><defs><path d="M295 13c-75 0-135-60-135-135s60-135 135-135 135 60 135 135S370 13 295 13zm0-809c-75 0-135-60-135-135s60-135 135-135 135 60 135 135-60 135-135 135" id="C"/><path d="M458 0L52-1490h194c108 439 233 855 324 1313 92-459 221-873 331-1313h216c110 438 234 854 330 1307 92-455 216-869 323-1307h196L1558 0h-221l-256-944c-26-95-50-200-73-331-22 122-44 223-73 331L680 0H458" id="D"/><path d="M613 24c-304 0-509-231-509-576 0-350 205-580 509-580 305 0 511 230 511 580 0 345-206 576-511 576zm0-161c226 0 329-195 329-415 0-222-103-419-329-419-223 0-326 196-326 419 0 220 103 415 326 415" id="E"/><path d="M158 0v-1118h174v172h12c41-113 157-188 290-188 26 0 70 2 91 3v181c-11-2-60-10-108-10-161 0-279 109-279 260V0H158" id="F"/><path d="M158 0v-1490h180v865h22l478-493h223L593-638 1096 0H865L456-523 338-412V0H158" id="G"/><path d="M538 24C308 24 148-78 108-271l171-41c32 123 123 178 257 178 156 0 256-77 256-169 0-77-54-128-164-154l-186-44c-203-48-300-148-300-305 0-192 176-326 414-326 230 0 351 112 402 269l-163 42c-31-80-94-158-238-158-133 0-233 69-233 162 0 83 57 129 188 160l169 40c203 48 298 149 298 302 0 196-179 339-441 339" id="H"/><path d="M338-670V0H158v-1490h180v566c73-149 190-208 336-208 226 0 379 139 379 422V0H872v-695c0-172-96-275-252-275-161 0-282 109-282 300" id="I"/><path d="M158 418v-1536h174v179h20c37-59 106-193 324-193 279 0 474 222 474 576 0 356-194 580-473 580-213 0-288-135-325-197h-14v591H158zm492-555c209 0 317-186 317-421 0-232-105-413-317-413-206 0-314 166-314 413 0 249 111 421 314 421" id="J"/><g id="a"><use transform="matrix(0.010850694444444444,0,0,0.010850694444444444,0,0)" xlink:href="#C"/><use transform="matrix(0.010850694444444444,0,0,0.010850694444444444,6.401909722222222,0)" xlink:href="#D"/><use transform="matrix(0.010850694444444444,0,0,0.010850694444444444,27.17013888888889,0)" xlink:href="#E"/><use transform="matrix(0.010850694444444444,0,0,0.010850694444444444,40.494791666666664,0)" xlink:href="#F"/><use transform="matrix(0.010850694444444444,0,0,0.010850694444444444,49.20789930555556,0)" xlink:href="#G"/><use transform="matrix(0.010850694444444444,0,0,0.010850694444444444,61.40407986111111,0)" xlink:href="#H"/><use transform="matrix(0.010850694444444444,0,0,0.010850694444444444,73.13368055555556,0)" xlink:href="#I"/><use transform="matrix(0.010850694444444444,0,0,0.010850694444444444,86.27387152777777,0)" xlink:href="#E"/><use transform="matrix(0.010850694444444444,0,0,0.010850694444444444,99.59852430555556,0)" xlink:href="#J"/></g><path d="M783 20c-382 0-661-292-661-764 0-473 279-766 661-766 302 0 548 182 601 489h-190c-42-204-217-313-411-313-268 0-476 208-476 590 0 381 209 588 476 588 195 0 369-110 411-313h190c-52 303-296 489-601 489" id="K"/><path d="M338-670V0H158v-1118h173l1 207c72-158 192-221 342-221 226 0 378 139 378 422V0H872v-695c0-172-96-275-252-275-161 0-282 109-282 300" id="L"/><path d="M678-1118v154H420V0H240v-964H20v-154h220v-149c0-194 155-293 318-293 85 0 141 18 168 30l-50 154c-19-6-47-17-97-17-111 0-159 58-159 166v109h258" id="M"/><path d="M628 24c-324 0-524-230-524-574 0-343 198-582 503-582 237 0 487 146 487 559v75H286c9 234 145 362 343 362 132 0 231-58 273-172l174 48C1024-91 857 24 628 24zM287-650h624c-17-190-120-322-304-322-192 0-309 151-320 322" id="N"/><path d="M613 24c-304 0-509-231-509-576 0-350 205-580 509-580 216 0 392 114 453 309l-173 49c-33-115-133-197-280-197-223 0-326 196-326 419 0 220 103 415 326 415 150 0 252-85 285-206l172 49C1010-95 832 24 613 24" id="O"/><g id="b"><use transform="matrix(0.010850694444444444,0,0,0.010850694444444444,0,0)" xlink:href="#C"/><use transform="matrix(0.010850694444444444,0,0,0.010850694444444444,6.401909722222222,0)" xlink:href="#K"/><use transform="matrix(0.010850694444444444,0,0,0.010850694444444444,22.63454861111111,0)" xlink:href="#E"/><use transform="matrix(0.010850694444444444,0,0,0.010850694444444444,35.959201388888886,0)" xlink:href="#L"/><use transform="matrix(0.010850694444444444,0,0,0.010850694444444444,49.088541666666664,0)" xlink:href="#M"/><use transform="matrix(0.010850694444444444,0,0,0.010850694444444444,56.662326388888886,0)" xlink:href="#N"/><use transform="matrix(0.010850694444444444,0,0,0.010850694444444444,69.61805555555556,0)" xlink:href="#F"/><use transform="matrix(0.010850694444444444,0,0,0.010850694444444444,77.61501736111111,0)" xlink:href="#N"/><use transform="matrix(0.010850694444444444,0,0,0.010850694444444444,90.5707465277778,0)" xlink:href="#L"/><use transform="matrix(0.010850694444444444,0,0,0.010850694444444444,103.70008680555556,0)" xlink:href="#O"/><use transform="matrix(0.010850694444444444,0,0,0.010850694444444444,116.39539930555556,0)" xlink:href="#N"/></g><path d="M545 20c-263 0-445-160-445-446v-80h190v80c0 182 102 279 255 279 152 0 254-97 254-279v-1064h190v1064c0 286-181 446-444 446" id="P"/><path d="M537 14c-226 0-379-139-379-422v-710h180v695c0 172 97 275 253 275 160 0 281-109 281-300v-670h181V0H879v-209C806-46 684 14 537 14" id="Q"/><path d="M471 26C259 26 90-98 90-318c0-256 228-303 435-329 202-27 287-16 287-108 0-139-79-219-234-219-161 0-248 86-283 164l-173-57c86-203 278-265 451-265 150 0 419 46 419 395V0H815v-152h-12C765-73 660 26 471 26zm31-159c199 0 310-134 310-271v-155c-30 35-226 55-295 64-131 17-246 59-246 186 0 116 97 176 231 176" id="R"/><path d="M338-1490V0H158v-1490h180" id="S"/><g id="c"><use transform="matrix(0.010850694444444444,0,0,0.010850694444444444,0,0)" xlink:href="#C"/><use transform="matrix(0.010850694444444444,0,0,0.010850694444444444,6.401909722222222,0)" xlink:href="#P"/><use transform="matrix(0.010850694444444444,0,0,0.010850694444444444,19.08637152777778,0)" xlink:href="#E"/><use transform="matrix(0.010850694444444444,0,0,0.010850694444444444,32.41102430555556,0)" xlink:href="#Q"/><use transform="matrix(0.010850694444444444,0,0,0.010850694444444444,45.55121527777778,0)" xlink:href="#F"/><use transform="matrix(0.010850694444444444,0,0,0.010850694444444444,54.264322916666664,0)" xlink:href="#L"/><use transform="matrix(0.010850694444444444,0,0,0.010850694444444444,67.39366319444444,0)" xlink:href="#R"/><use transform="matrix(0.010850694444444444,0,0,0.010850694444444444,79.87196180555556,0)" xlink:href="#S"/></g><path d="M180 0v-1490h270l367 940c28 72 75 218 110 339 35-117 81-264 110-339l362-940h271V0h-187c2-448-5-837 7-1287-157 497-311 829-483 1287H842C666-458 514-784 354-1284c12 438 5 843 7 1284H180" id="T"/><path d="M611 442c-248 0-391-105-460-228l146-94c47 65 117 165 314 165 178 0 307-82 307-266v-224h-17C863-141 792-18 576-18c-268 0-472-195-472-546 0-346 197-568 476-568 216 0 288 133 326 193h17v-179h175V29c0 289-215 413-487 413zm-5-620c203 0 314-146 314-390 0-237-108-403-314-403-213 0-319 180-319 403 0 230 109 390 319 390" id="U"/><path d="M126 0v-134l627-806v-11H146v-167h839v143L376-178v11h629V0H126" id="V"/><path d="M158 0v-1118h180V0H158zm91-1301c-68 0-125-53-125-119s57-119 125-119c69 0 126 53 126 119s-57 119-126 119" id="W"/><g id="d"><use transform="matrix(0.010850694444444444,0,0,0.010850694444444444,0,0)" xlink:href="#C"/><use transform="matrix(0.010850694444444444,0,0,0.010850694444444444,6.401909722222222,0)" xlink:href="#T"/><use transform="matrix(0.010850694444444444,0,0,0.010850694444444444,26.475694444444443,0)" xlink:href="#R"/><use transform="matrix(0.010850694444444444,0,0,0.010850694444444444,38.95399305555556,0)" xlink:href="#U"/><use transform="matrix(0.010850694444444444,0,0,0.010850694444444444,52.58246527777778,0)" xlink:href="#R"/><use transform="matrix(0.010850694444444444,0,0,0.010850694444444444,65.06076388888889,0)" xlink:href="#V"/><use transform="matrix(0.010850694444444444,0,0,0.010850694444444444,77.33289930555556,0)" xlink:href="#W"/><use transform="matrix(0.010850694444444444,0,0,0.010850694444444444,82.71484375,0)" xlink:href="#L"/><use transform="matrix(0.010850694444444444,0,0,0.010850694444444444,95.84418402777777,0)" xlink:href="#N"/></g><path d="M677 24c-213 0-288-135-325-197h-20V0H158v-1490h180v551h14c37-59 106-193 324-193 279 0 474 222 474 576 0 356-194 580-473 580zm-27-161c209 0 317-186 317-421 0-232-105-413-317-413-206 0-314 166-314 413 0 249 111 421 314 421" id="X"/><path d="M577 24c-279 0-473-224-473-580 0-354 195-576 474-576 218 0 287 134 324 193h14v-551h180V0H922v-173h-20C865-111 790 24 577 24zm27-161c203 0 314-172 314-421 0-247-108-413-314-413-212 0-317 181-317 413 0 235 108 421 317 421" id="Y"/><path d="M52 0l541-1490h220L1361 0h-200l-149-416H398L254 0H52zm404-582h497c-103-290-145-390-251-756-108 377-145 460-246 756" id="Z"/><path d="M598-1118v154H368v674c0 100 37 144 132 144 23 0 62-6 92-12L629-6c-37 13-88 20-134 20-193 0-307-107-307-290v-688H20v-154h168v-266h180v266h230" id="aa"/><g id="e"><use transform="matrix(0.010850694444444444,0,0,0.010850694444444444,0,0)" xlink:href="#C"/><use transform="matrix(0.010850694444444444,0,0,0.010850694444444444,6.401909722222222,0)" xlink:href="#J"/><use transform="matrix(0.010850694444444444,0,0,0.010850694444444444,20.008680555555554,0)" xlink:href="#Q"/><use transform="matrix(0.010850694444444444,0,0,0.010850694444444444,33.14887152777777,0)" xlink:href="#X"/><use transform="matrix(0.010850694444444444,0,0,0.010850694444444444,46.7556423611111,0)" xlink:href="#S"/><use transform="matrix(0.010850694444444444,0,0,0.010850694444444444,52.13758680555554,0)" xlink:href="#W"/><use transform="matrix(0.010850694444444444,0,0,0.010850694444444444,57.519531249999986,0)" xlink:href="#H"/><use transform="matrix(0.010850694444444444,0,0,0.010850694444444444,69.24913194444443,0)" xlink:href="#N"/><use transform="matrix(0.010850694444444444,0,0,0.010850694444444444,82.2048611111111,0)" xlink:href="#Y"/><use transform="matrix(0.010850694444444444,0,0,0.010850694444444444,95.81163194444441,0)" xlink:href="#Z"/><use transform="matrix(0.010850694444444444,0,0,0.010850694444444444,110.70963541666666,0)" xlink:href="#aa"/></g><path d="M158 0v-1118h175l1 205c55-151 181-225 313-225 147 0 245 90 285 228 53-141 190-228 352-228 194 0 352 125 352 384V0h-181v-749c0-161-105-225-225-225-151 0-243 103-243 244V0H807v-767c0-124-93-207-219-207-131 0-250 92-250 270V0H158" id="ab"/><g id="f"><use transform="matrix(0.007595486111111112,0,0,0.007595486111111112,0,0)" xlink:href="#F"/><use transform="matrix(0.007595486111111112,0,0,0.007595486111111112,5.597873263888889,0)" xlink:href="#Y"/><use transform="matrix(0.007595486111111112,0,0,0.007595486111111112,15.122612847222223,0)" xlink:href="#M"/><use transform="matrix(0.007595486111111112,0,0,0.007595486111111112,20.530598958333336,0)" xlink:href="#H"/><use transform="matrix(0.007595486111111112,0,0,0.007595486111111112,28.74131944444445,0)" xlink:href="#C"/><use transform="matrix(0.007595486111111112,0,0,0.007595486111111112,33.22265625000001,0)" xlink:href="#Y"/><use transform="matrix(0.007595486111111112,0,0,0.007595486111111112,42.74739583333334,0)" xlink:href="#E"/><use transform="matrix(0.007595486111111112,0,0,0.007595486111111112,52.074652777777786,0)" xlink:href="#ab"/><use transform="matrix(0.007595486111111112,0,0,0.007595486111111112,65.70095486111111,0)" xlink:href="#R"/><use transform="matrix(0.007595486111111112,0,0,0.007595486111111112,74.43576388888889,0)" xlink:href="#W"/><use transform="matrix(0.007595486111111112,0,0,0.007595486111111112,78.203125,0)" xlink:href="#L"/></g><path d="M180 0v-1490h510c348 0 508 209 508 474 0 266-160 477-507 477H370V0H180zm190-706h312c236 0 327-133 327-310 0-176-91-307-329-307H370v617" id="ac"/><g id="g"><use transform="matrix(0.010850694444444444,0,0,0.010850694444444444,0,0)" xlink:href="#C"/><use transform="matrix(0.010850694444444444,0,0,0.010850694444444444,6.401909722222222,0)" xlink:href="#ac"/><use transform="matrix(0.010850694444444444,0,0,0.010850694444444444,20.594618055555554,0)" xlink:href="#F"/><use transform="matrix(0.010850694444444444,0,0,0.010850694444444444,28.591579861111104,0)" xlink:href="#E"/><use transform="matrix(0.010850694444444444,0,0,0.010850694444444444,41.916232638888886,0)" xlink:href="#O"/><use transform="matrix(0.010850694444444444,0,0,0.010850694444444444,54.611545138888886,0)" xlink:href="#N"/><use transform="matrix(0.010850694444444444,0,0,0.010850694444444444,67.56727430555556,0)" xlink:href="#N"/><use transform="matrix(0.010850694444444444,0,0,0.010850694444444444,80.52300347222223,0)" xlink:href="#Y"/><use transform="matrix(0.010850694444444444,0,0,0.010850694444444444,94.12977430555556,0)" xlink:href="#W"/><use transform="matrix(0.010850694444444444,0,0,0.010850694444444444,99.51171875,0)" xlink:href="#L"/><use transform="matrix(0.010850694444444444,0,0,0.010850694444444444,112.64105902777777,0)" xlink:href="#U"/></g><g id="h"><use transform="matrix(0.007595486111111112,0,0,0.007595486111111112,0,0)" xlink:href="#F"/><use transform="matrix(0.007595486111111112,0,0,0.007595486111111112,5.597873263888889,0)" xlink:href="#Y"/><use transform="matrix(0.007595486111111112,0,0,0.007595486111111112,15.122612847222223,0)" xlink:href="#M"/><use transform="matrix(0.007595486111111112,0,0,0.007595486111111112,20.530598958333336,0)" xlink:href="#H"/><use transform="matrix(0.007595486111111112,0,0,0.007595486111111112,28.74131944444445,0)" xlink:href="#C"/><use transform="matrix(0.007595486111111112,0,0,0.007595486111111112,33.22265625000001,0)" xlink:href="#F"/><use transform="matrix(0.007595486111111112,0,0,0.007595486111111112,39.07877604166667,0)" xlink:href="#R"/><use transform="matrix(0.007595486111111112,0,0,0.007595486111111112,47.81358506944445,0)" xlink:href="#L"/><use transform="matrix(0.007595486111111112,0,0,0.007595486111111112,57.00412326388889,0)" xlink:href="#U"/><use transform="matrix(0.007595486111111112,0,0,0.007595486111111112,66.54405381944446,0)" xlink:href="#N"/></g><g id="i"><use transform="matrix(0.008680555555555556,0,0,0.008680555555555556,0,0)" xlink:href="#C"/><use transform="matrix(0.008680555555555556,0,0,0.008680555555555556,5.121527777777778,0)" xlink:href="#Z"/><use transform="matrix(0.008680555555555556,0,0,0.008680555555555556,17.38715277777778,0)" xlink:href="#O"/><use transform="matrix(0.008680555555555556,0,0,0.008680555555555556,27.71701388888889,0)" xlink:href="#R"/><use transform="matrix(0.008680555555555556,0,0,0.008680555555555556,37.69965277777778,0)" xlink:href="#Y"/><use transform="matrix(0.008680555555555556,0,0,0.008680555555555556,48.58506944444445,0)" xlink:href="#N"/><use transform="matrix(0.008680555555555556,0,0,0.008680555555555556,58.94965277777778,0)" xlink:href="#ab"/><use transform="matrix(0.008680555555555556,0,0,0.008680555555555556,74.52256944444444,0)" xlink:href="#W"/><use transform="matrix(0.008680555555555556,0,0,0.008680555555555556,78.828125,0)" xlink:href="#O"/><use transform="matrix(0.008680555555555556,0,0,0.008680555555555556,88.984375,0)" xlink:href="#ac"/><use transform="matrix(0.008680555555555556,0,0,0.008680555555555556,100.33854166666667,0)" xlink:href="#Q"/><use transform="matrix(0.008680555555555556,0,0,0.008680555555555556,110.85069444444444,0)" xlink:href="#X"/><use transform="matrix(0.008680555555555556,0,0,0.008680555555555556,121.73611111111113,0)" xlink:href="#S"/><use transform="matrix(0.008680555555555556,0,0,0.008680555555555556,126.04166666666669,0)" xlink:href="#W"/><use transform="matrix(0.008680555555555556,0,0,0.008680555555555556,130.34722222222223,0)" xlink:href="#H"/><use transform="matrix(0.008680555555555556,0,0,0.008680555555555556,139.73090277777777,0)" xlink:href="#I"/><use transform="matrix(0.008680555555555556,0,0,0.008680555555555556,150.24305555555554,0)" xlink:href="#N"/><use transform="matrix(0.008680555555555556,0,0,0.008680555555555556,160.60763888888889,0)" xlink:href="#F"/></g><path d="M784 20c-382 0-662-292-662-764 0-473 280-766 662-766s660 293 660 766c0 472-278 764-660 764zm0-176c266 0 475-207 475-588 0-383-209-590-475-590-268 0-477 208-477 590 0 380 209 588 477 588" id="ad"/><g id="j"><use transform="matrix(0.007595486111111112,0,0,0.007595486111111112,0,0)" xlink:href="#F"/><use transform="matrix(0.007595486111111112,0,0,0.007595486111111112,5.597873263888889,0)" xlink:href="#Y"/><use transform="matrix(0.007595486111111112,0,0,0.007595486111111112,15.122612847222223,0)" xlink:href="#M"/><use transform="matrix(0.007595486111111112,0,0,0.007595486111111112,20.530598958333336,0)" xlink:href="#H"/><use transform="matrix(0.007595486111111112,0,0,0.007595486111111112,28.74131944444445,0)" xlink:href="#C"/><use transform="matrix(0.007595486111111112,0,0,0.007595486111111112,33.22265625000001,0)" xlink:href="#H"/><use transform="matrix(0.007595486111111112,0,0,0.007595486111111112,41.43337673611112,0)" xlink:href="#Q"/><use transform="matrix(0.007595486111111112,0,0,0.007595486111111112,50.63151041666668,0)" xlink:href="#X"/><use transform="matrix(0.007595486111111112,0,0,0.007595486111111112,60.156250000000014,0)" xlink:href="#K"/><use transform="matrix(0.007595486111111112,0,0,0.007595486111111112,71.51909722222224,0)" xlink:href="#S"/><use transform="matrix(0.007595486111111112,0,0,0.007595486111111112,75.28645833333336,0)" xlink:href="#R"/><use transform="matrix(0.007595486111111112,0,0,0.007595486111111112,84.02126736111114,0)" xlink:href="#H"/><use transform="matrix(0.007595486111111112,0,0,0.007595486111111112,92.23198784722226,0)" xlink:href="#H"/><use transform="matrix(0.007595486111111112,0,0,0.007595486111111112,100.44270833333337,0)" xlink:href="#ad"/><use transform="matrix(0.007595486111111112,0,0,0.007595486111111112,112.33723958333337,0)" xlink:href="#M"/></g><g id="k"><use transform="matrix(0.010850694444444444,0,0,0.010850694444444444,0,0)" xlink:href="#C"/><use transform="matrix(0.010850694444444444,0,0,0.010850694444444444,6.401909722222222,0)" xlink:href="#ac"/><use transform="matrix(0.010850694444444444,0,0,0.010850694444444444,20.594618055555554,0)" xlink:href="#R"/><use transform="matrix(0.010850694444444444,0,0,0.010850694444444444,33.072916666666664,0)" xlink:href="#J"/><use transform="matrix(0.010850694444444444,0,0,0.010850694444444444,46.6796875,0)" xlink:href="#N"/><use transform="matrix(0.010850694444444444,0,0,0.010850694444444444,59.635416666666664,0)" xlink:href="#F"/><use transform="matrix(0.010850694444444444,0,0,0.010850694444444444,68.00130208333333,0)" xlink:href="#K"/><use transform="matrix(0.010850694444444444,0,0,0.010850694444444444,84.23394097222221,0)" xlink:href="#E"/><use transform="matrix(0.010850694444444444,0,0,0.010850694444444444,97.55859374999997,0)" xlink:href="#S"/><use transform="matrix(0.010850694444444444,0,0,0.010850694444444444,102.94053819444441,0)" xlink:href="#S"/><use transform="matrix(0.010850694444444444,0,0,0.010850694444444444,108.32248263888887,0)" xlink:href="#N"/><use transform="matrix(0.010850694444444444,0,0,0.010850694444444444,121.27821180555556,0)" xlink:href="#O"/><use transform="matrix(0.010850694444444444,0,0,0.010850694444444444,133.97352430555554,0)" xlink:href="#aa"/><use transform="matrix(0.010850694444444444,0,0,0.010850694444444444,141.24348958333331,0)" xlink:href="#W"/><use transform="matrix(0.010850694444444444,0,0,0.010850694444444444,146.62543402777777,0)" xlink:href="#E"/><use transform="matrix(0.010850694444444444,0,0,0.010850694444444444,159.95008680555554,0)" xlink:href="#L"/></g><g id="l"><use transform="matrix(0.010850694444444444,0,0,0.010850694444444444,0,0)" xlink:href="#C"/><use transform="matrix(0.010850694444444444,0,0,0.010850694444444444,6.401909722222222,0)" xlink:href="#ac"/><use transform="matrix(0.010850694444444444,0,0,0.010850694444444444,20.594618055555554,0)" xlink:href="#R"/><use transform="matrix(0.010850694444444444,0,0,0.010850694444444444,33.072916666666664,0)" xlink:href="#J"/><use transform="matrix(0.010850694444444444,0,0,0.010850694444444444,46.6796875,0)" xlink:href="#N"/><use transform="matrix(0.010850694444444444,0,0,0.010850694444444444,59.635416666666664,0)" xlink:href="#F"/></g><g id="m"><use transform="matrix(0.010850694444444444,0,0,0.010850694444444444,0,0)" xlink:href="#C"/><use transform="matrix(0.010850694444444444,0,0,0.010850694444444444,6.401909722222222,0)" xlink:href="#W"/><use transform="matrix(0.010850694444444444,0,0,0.010850694444444444,11.783854166666668,0)" xlink:href="#L"/><use transform="matrix(0.010850694444444444,0,0,0.010850694444444444,24.913194444444443,0)" xlink:href="#O"/><use transform="matrix(0.010850694444444444,0,0,0.010850694444444444,37.60850694444444,0)" xlink:href="#S"/><use transform="matrix(0.010850694444444444,0,0,0.010850694444444444,42.990451388888886,0)" xlink:href="#Q"/><use transform="matrix(0.010850694444444444,0,0,0.010850694444444444,56.13064236111111,0)" xlink:href="#Y"/><use transform="matrix(0.010850694444444444,0,0,0.010850694444444444,69.73741319444444,0)" xlink:href="#N"/><use transform="matrix(0.010850694444444444,0,0,0.010850694444444444,82.69314236111111,0)" xlink:href="#H"/></g><path d="M180 0v-1490h908v168H370v486h669v168H370v500h727V0H180" id="ae"/><path d="M481 0L54-1118h197c107 314 236 620 325 951 87-331 217-637 324-951h197L670 0H481" id="af"/><g id="n"><use transform="matrix(0.010850694444444444,0,0,0.010850694444444444,0,0)" xlink:href="#C"/><use transform="matrix(0.010850694444444444,0,0,0.010850694444444444,6.401909722222222,0)" xlink:href="#ae"/><use transform="matrix(0.010850694444444444,0,0,0.010850694444444444,19.759114583333332,0)" xlink:href="#af"/><use transform="matrix(0.010850694444444444,0,0,0.010850694444444444,31.814236111111104,0)" xlink:href="#N"/><use transform="matrix(0.010850694444444444,0,0,0.010850694444444444,44.76996527777778,0)" xlink:href="#L"/><use transform="matrix(0.010850694444444444,0,0,0.010850694444444444,57.89930555555555,0)" xlink:href="#aa"/></g><path d="M409 0L70-1118h191c89 329 165 560 243 925 75-353 154-601 240-925h192c85 325 161 564 235 922 77-354 157-598 244-922h191L1267 0h-179c-86-307-176-590-250-913C763-588 675-308 588 0H409" id="ag"/><g id="o"><use transform="matrix(0.010850694444444444,0,0,0.010850694444444444,0,0)" xlink:href="#C"/><use transform="matrix(0.010850694444444444,0,0,0.010850694444444444,6.401909722222222,0)" xlink:href="#ag"/><use transform="matrix(0.010850694444444444,0,0,0.010850694444444444,24.58767361111111,0)" xlink:href="#F"/><use transform="matrix(0.010850694444444444,0,0,0.010850694444444444,33.30078125,0)" xlink:href="#W"/><use transform="matrix(0.010850694444444444,0,0,0.010850694444444444,38.68272569444444,0)" xlink:href="#aa"/><use transform="matrix(0.010850694444444444,0,0,0.010850694444444444,45.73567708333333,0)" xlink:href="#N"/><use transform="matrix(0.010850694444444444,0,0,0.010850694444444444,58.69140625,0)" xlink:href="#H"/></g><g id="p"><use transform="matrix(0.010850694444444444,0,0,0.010850694444444444,0,0)" xlink:href="#C"/><use transform="matrix(0.010850694444444444,0,0,0.010850694444444444,6.401909722222222,0)" xlink:href="#Z"/><use transform="matrix(0.010850694444444444,0,0,0.010850694444444444,21.73394097222222,0)" xlink:href="#Q"/><use transform="matrix(0.010850694444444444,0,0,0.010850694444444444,34.87413194444444,0)" xlink:href="#aa"/><use transform="matrix(0.010850694444444444,0,0,0.010850694444444444,42.14409722222222,0)" xlink:href="#I"/><use transform="matrix(0.010850694444444444,0,0,0.010850694444444444,55.28428819444444,0)" xlink:href="#E"/><use transform="matrix(0.010850694444444444,0,0,0.010850694444444444,68.60894097222221,0)" xlink:href="#F"/></g><g id="q"><use transform="matrix(0.010850694444444444,0,0,0.010850694444444444,0,0)" xlink:href="#C"/><use transform="matrix(0.010850694444444444,0,0,0.010850694444444444,6.401909722222222,0)" xlink:href="#F"/><use transform="matrix(0.010850694444444444,0,0,0.010850694444444444,14.39887152777778,0)" xlink:href="#N"/><use transform="matrix(0.010850694444444444,0,0,0.010850694444444444,26.920572916666664,0)" xlink:href="#af"/><use transform="matrix(0.010850694444444444,0,0,0.010850694444444444,39.40972222222222,0)" xlink:href="#W"/><use transform="matrix(0.010850694444444444,0,0,0.010850694444444444,44.791666666666664,0)" xlink:href="#N"/><use transform="matrix(0.010850694444444444,0,0,0.010850694444444444,57.345920138888886,0)" xlink:href="#ag"/><use transform="matrix(0.010850694444444444,0,0,0.010850694444444444,75.53168402777777,0)" xlink:href="#H"/></g><path d="M180 0v-1490h510c348 0 508 194 508 460 0 198-88 351-276 417L1256 0h-220L726-579c-117 2-238 0-356 1V0H180zm190-747h312c235 0 327-108 327-283 0-177-92-293-329-293H370v576" id="ah"/><g id="r"><use transform="matrix(0.010850694444444444,0,0,0.010850694444444444,0,0)" xlink:href="#C"/><use transform="matrix(0.010850694444444444,0,0,0.010850694444444444,6.401909722222222,0)" xlink:href="#ah"/><use transform="matrix(0.010850694444444444,0,0,0.010850694444444444,20.377604166666664,0)" xlink:href="#N"/><use transform="matrix(0.010850694444444444,0,0,0.010850694444444444,32.89930555555555,0)" xlink:href="#af"/><use transform="matrix(0.010850694444444444,0,0,0.010850694444444444,45.38845486111111,0)" xlink:href="#W"/><use transform="matrix(0.010850694444444444,0,0,0.010850694444444444,50.77039930555556,0)" xlink:href="#N"/><use transform="matrix(0.010850694444444444,0,0,0.010850694444444444,63.32465277777778,0)" xlink:href="#ag"/><use transform="matrix(0.010850694444444444,0,0,0.010850694444444444,81.10894097222221,0)" xlink:href="#N"/><use transform="matrix(0.010850694444444444,0,0,0.010850694444444444,94.06467013888889,0)" xlink:href="#F"/></g><g id="s"><use transform="matrix(0.010850694444444444,0,0,0.010850694444444444,0,0)" xlink:href="#C"/><use transform="matrix(0.010850694444444444,0,0,0.010850694444444444,6.401909722222222,0)" xlink:href="#af"/><use transform="matrix(0.010850694444444444,0,0,0.010850694444444444,18.45703125,0)" xlink:href="#N"/><use transform="matrix(0.010850694444444444,0,0,0.010850694444444444,31.412760416666664,0)" xlink:href="#L"/><use transform="matrix(0.010850694444444444,0,0,0.010850694444444444,44.54210069444444,0)" xlink:href="#Q"/><use transform="matrix(0.010850694444444444,0,0,0.010850694444444444,57.682291666666664,0)" xlink:href="#N"/></g><path d="M140 405l46-156c120 36 205 19 263-150l32-93L54-1118h197c107 313 237 620 324 950 87-331 219-637 326-950h196L606 167c-68 178-176 259-334 259-64 0-113-12-132-21" id="ai"/><g id="t"><use transform="matrix(0.010850694444444444,0,0,0.010850694444444444,0,0)" xlink:href="#C"/><use transform="matrix(0.010850694444444444,0,0,0.010850694444444444,6.401909722222222,0)" xlink:href="#ai"/><use transform="matrix(0.010850694444444444,0,0,0.010850694444444444,18.45703125,0)" xlink:href="#N"/><use transform="matrix(0.010850694444444444,0,0,0.010850694444444444,31.62977430555556,0)" xlink:href="#R"/><use transform="matrix(0.010850694444444444,0,0,0.010850694444444444,44.10807291666667,0)" xlink:href="#F"/></g><path d="M370-1490V0H180v-1490h190" id="aj"/><g id="u"><use transform="matrix(0.010850694444444444,0,0,0.010850694444444444,0,0)" xlink:href="#C"/><use transform="matrix(0.010850694444444444,0,0,0.010850694444444444,6.401909722222222,0)" xlink:href="#aj"/><use transform="matrix(0.010850694444444444,0,0,0.010850694444444444,12.369791666666668,0)" xlink:href="#H"/><use transform="matrix(0.010850694444444444,0,0,0.010850694444444444,24.099392361111114,0)" xlink:href="#K"/><use transform="matrix(0.010850694444444444,0,0,0.010850694444444444,40.33203125,0)" xlink:href="#E"/><use transform="matrix(0.010850694444444444,0,0,0.010850694444444444,53.65668402777778,0)" xlink:href="#F"/><use transform="matrix(0.010850694444444444,0,0,0.010850694444444444,62.369791666666664,0)" xlink:href="#F"/><use transform="matrix(0.010850694444444444,0,0,0.010850694444444444,70.36675347222221,0)" xlink:href="#N"/><use transform="matrix(0.010850694444444444,0,0,0.010850694444444444,83.32248263888889,0)" xlink:href="#H"/><use transform="matrix(0.010850694444444444,0,0,0.010850694444444444,95.05208333333333,0)" xlink:href="#J"/><use transform="matrix(0.010850694444444444,0,0,0.010850694444444444,108.65885416666666,0)" xlink:href="#E"/><use transform="matrix(0.010850694444444444,0,0,0.010850694444444444,121.98350694444441,0)" xlink:href="#L"/><use transform="matrix(0.010850694444444444,0,0,0.010850694444444444,135.1128472222222,0)" xlink:href="#Y"/><use transform="matrix(0.010850694444444444,0,0,0.010850694444444444,148.71961805555554,0)" xlink:href="#W"/><use transform="matrix(0.010850694444444444,0,0,0.010850694444444444,154.1015625,0)" xlink:href="#L"/><use transform="matrix(0.010850694444444444,0,0,0.010850694444444444,167.23090277777777,0)" xlink:href="#U"/><use transform="matrix(0.010850694444444444,0,0,0.010850694444444444,180.859375,0)" xlink:href="#Z"/><use transform="matrix(0.010850694444444444,0,0,0.010850694444444444,196.19140625,0)" xlink:href="#Q"/><use transform="matrix(0.010850694444444444,0,0,0.010850694444444444,209.33159722222223,0)" xlink:href="#aa"/><use transform="matrix(0.010850694444444444,0,0,0.010850694444444444,216.6015625,0)" xlink:href="#I"/><use transform="matrix(0.010850694444444444,0,0,0.010850694444444444,229.7417534722222,0)" xlink:href="#E"/><use transform="matrix(0.010850694444444444,0,0,0.010850694444444444,243.06640625,0)" xlink:href="#F"/><use transform="matrix(0.010850694444444444,0,0,0.010850694444444444,251.43229166666666,0)" xlink:href="#ad"/><use transform="matrix(0.010850694444444444,0,0,0.010850694444444444,268.42447916666663,0)" xlink:href="#M"/></g><g id="v"><use transform="matrix(0.010850694444444444,0,0,0.010850694444444444,0,0)" xlink:href="#C"/><use transform="matrix(0.010850694444444444,0,0,0.010850694444444444,6.401909722222222,0)" xlink:href="#O"/><use transform="matrix(0.010850694444444444,0,0,0.010850694444444444,19.09722222222222,0)" xlink:href="#W"/><use transform="matrix(0.010850694444444444,0,0,0.010850694444444444,24.479166666666664,0)" xlink:href="#aa"/><use transform="matrix(0.010850694444444444,0,0,0.010850694444444444,31.532118055555554,0)" xlink:href="#N"/><use transform="matrix(0.010850694444444444,0,0,0.010850694444444444,44.48784722222222,0)" xlink:href="#H"/></g><g id="w"><use transform="matrix(0.010850694444444444,0,0,0.010850694444444444,0,0)" xlink:href="#C"/><use transform="matrix(0.010850694444444444,0,0,0.010850694444444444,6.401909722222222,0)" xlink:href="#Y"/><use transform="matrix(0.010850694444444444,0,0,0.010850694444444444,20.008680555555554,0)" xlink:href="#W"/><use transform="matrix(0.010850694444444444,0,0,0.010850694444444444,25.390625,0)" xlink:href="#H"/><use transform="matrix(0.010850694444444444,0,0,0.010850694444444444,37.12022569444444,0)" xlink:href="#O"/><use transform="matrix(0.010850694444444444,0,0,0.010850694444444444,49.81553819444444,0)" xlink:href="#Q"/><use transform="matrix(0.010850694444444444,0,0,0.010850694444444444,62.955729166666664,0)" xlink:href="#H"/><use transform="matrix(0.010850694444444444,0,0,0.010850694444444444,74.68532986111111,0)" xlink:href="#H"/><use transform="matrix(0.010850694444444444,0,0,0.010850694444444444,86.41493055555556,0)" xlink:href="#N"/><use transform="matrix(0.010850694444444444,0,0,0.010850694444444444,99.37065972222221,0)" xlink:href="#H"/></g><path d="M180 0v-1490h190c0 262 1 526-3 784 217-279 467-523 702-784h249L716-845 1319 0h-225L585-716 370-489V0H180" id="ak"/><g id="x"><use transform="matrix(0.010850694444444444,0,0,0.010850694444444444,0,0)" xlink:href="#C"/><use transform="matrix(0.010850694444444444,0,0,0.010850694444444444,6.401909722222222,0)" xlink:href="#ak"/><use transform="matrix(0.010850694444444444,0,0,0.010850694444444444,20.45355902777778,0)" xlink:href="#N"/><use transform="matrix(0.010850694444444444,0,0,0.010850694444444444,32.975260416666664,0)" xlink:href="#ai"/><use transform="matrix(0.010850694444444444,0,0,0.010850694444444444,45.46440972222222,0)" xlink:href="#ag"/><use transform="matrix(0.010850694444444444,0,0,0.010850694444444444,63.24869791666667,0)" xlink:href="#E"/><use transform="matrix(0.010850694444444444,0,0,0.010850694444444444,76.57335069444444,0)" xlink:href="#F"/><use transform="matrix(0.010850694444444444,0,0,0.010850694444444444,84.5703125,0)" xlink:href="#Y"/></g><path d="M180 0v-1490h528c311 0 458 177 458 395 0 191-114 278-244 313v14c139 9 302 137 302 371 0 225-148 397-499 397H180zm190-168h350c232 0 321-102 321-231 0-149-120-277-311-277H370v508zm0-668h328c160 0 286-101 286-255 0-129-87-231-280-231H370v486" id="al"/><g id="y"><use transform="matrix(0.010850694444444444,0,0,0.010850694444444444,0,0)" xlink:href="#C"/><use transform="matrix(0.010850694444444444,0,0,0.010850694444444444,6.401909722222222,0)" xlink:href="#H"/><use transform="matrix(0.010850694444444444,0,0,0.010850694444444444,18.131510416666668,0)" xlink:href="#Q"/><use transform="matrix(0.010850694444444444,0,0,0.010850694444444444,31.27170138888889,0)" xlink:href="#ab"/><use transform="matrix(0.010850694444444444,0,0,0.010850694444444444,50.73784722222222,0)" xlink:href="#ab"/><use transform="matrix(0.010850694444444444,0,0,0.010850694444444444,70.20399305555556,0)" xlink:href="#R"/><use transform="matrix(0.010850694444444444,0,0,0.010850694444444444,82.68229166666667,0)" xlink:href="#F"/><use transform="matrix(0.010850694444444444,0,0,0.010850694444444444,91.39539930555557,0)" xlink:href="#W"/><use transform="matrix(0.010850694444444444,0,0,0.010850694444444444,96.77734375000001,0)" xlink:href="#V"/><use transform="matrix(0.010850694444444444,0,0,0.010850694444444444,108.72395833333334,0)" xlink:href="#N"/><use transform="matrix(0.010850694444444444,0,0,0.010850694444444444,121.67968750000003,0)" xlink:href="#Y"/><use transform="matrix(0.010850694444444444,0,0,0.010850694444444444,135.28645833333337,0)" xlink:href="#al"/><use transform="matrix(0.010850694444444444,0,0,0.010850694444444444,149.8263888888889,0)" xlink:href="#ai"/></g><g id="z"><use transform="matrix(0.010850694444444444,0,0,0.010850694444444444,0,0)" xlink:href="#C"/><use transform="matrix(0.010850694444444444,0,0,0.010850694444444444,6.401909722222222,0)" xlink:href="#Z"/><use transform="matrix(0.010850694444444444,0,0,0.010850694444444444,21.73394097222222,0)" xlink:href="#X"/><use transform="matrix(0.010850694444444444,0,0,0.010850694444444444,35.34071180555556,0)" xlink:href="#H"/><use transform="matrix(0.010850694444444444,0,0,0.010850694444444444,47.0703125,0)" xlink:href="#aa"/><use transform="matrix(0.010850694444444444,0,0,0.010850694444444444,54.34027777777778,0)" xlink:href="#F"/><use transform="matrix(0.010850694444444444,0,0,0.010850694444444444,62.70616319444444,0)" xlink:href="#R"/><use transform="matrix(0.010850694444444444,0,0,0.010850694444444444,75.18446180555556,0)" xlink:href="#O"/><use transform="matrix(0.010850694444444444,0,0,0.010850694444444444,87.87977430555556,0)" xlink:href="#aa"/></g><path d="M600 0v-610L52-1490h220l295 481c50 82 90 150 130 243 40-96 80-164 128-243l294-481h219L790-610V0H600" id="am"/><g id="A"><use transform="matrix(0.010850694444444444,0,0,0.010850694444444444,0,0)" xlink:href="#C"/><use transform="matrix(0.010850694444444444,0,0,0.010850694444444444,6.401909722222222,0)" xlink:href="#I"/><use transform="matrix(0.010850694444444444,0,0,0.010850694444444444,19.542100694444443,0)" xlink:href="#R"/><use transform="matrix(0.010850694444444444,0,0,0.010850694444444444,32.02039930555556,0)" xlink:href="#H"/><use transform="matrix(0.010850694444444444,0,0,0.010850694444444444,42.11154513888889,0)" xlink:href="#am"/><use transform="matrix(0.010850694444444444,0,0,0.010850694444444444,55.4904513888889,0)" xlink:href="#N"/><use transform="matrix(0.010850694444444444,0,0,0.010850694444444444,68.66319444444444,0)" xlink:href="#R"/><use transform="matrix(0.010850694444444444,0,0,0.010850694444444444,81.14149305555556,0)" xlink:href="#F"/></g><path d="M600 0L52-1490h200c166 485 304 806 458 1336 156-533 285-846 449-1336h202L819 0H600" id="an"/><g id="B"><use transform="matrix(0.010850694444444444,0,0,0.010850694444444444,0,0)" xlink:href="#C"/><use transform="matrix(0.010850694444444444,0,0,0.010850694444444444,6.401909722222222,0)" xlink:href="#I"/><use transform="matrix(0.010850694444444444,0,0,0.010850694444444444,19.542100694444443,0)" xlink:href="#R"/><use transform="matrix(0.010850694444444444,0,0,0.010850694444444444,32.02039930555556,0)" xlink:href="#H"/><use transform="matrix(0.010850694444444444,0,0,0.010850694444444444,42.74088541666667,0)" xlink:href="#an"/><use transform="matrix(0.010850694444444444,0,0,0.010850694444444444,58.07291666666667,0)" xlink:href="#N"/><use transform="matrix(0.010850694444444444,0,0,0.010850694444444444,71.02864583333334,0)" xlink:href="#L"/><use transform="matrix(0.010850694444444444,0,0,0.010850694444444444,84.15798611111111,0)" xlink:href="#Q"/><use transform="matrix(0.010850694444444444,0,0,0.010850694444444444,97.29817708333334,0)" xlink:href="#N"/></g></defs></g></svg>